<svg width="37" height="37" viewBox="0 0 37 37" fill="none" xmlns="http://www.w3.org/2000/svg">
<path d="M29.2334 18.5817V15.9421H30.0708C30.8972 15.9421 31.5693 15.2699 31.5693 14.4436C31.5693 14.1726 31.4958 13.9058 31.3556 13.6728L28.2827 8.55065C27.9925 8.06711 27.4616 7.76636 26.8975 7.76636C26.3334 7.76636 25.8025 8.06711 25.5123 8.55065L22.4388 13.6728C22.2992 13.9058 22.2256 14.1721 22.2256 14.4436C22.2256 15.2699 22.8978 15.9421 23.7241 15.9421H24.5616V18.5817C21.2451 19.4372 18.6972 22.05 17.8551 25.2858H15.8018C15.4882 25.2858 15.198 25.3752 14.9428 25.52C14.6321 25.03 14.0878 24.7018 13.4659 24.7018H2.95421C1.34417 24.7018 0.0343018 26.0117 0.0343018 27.6218C0.0343018 29.2318 1.34417 30.5417 2.95421 30.5417H13.4659C14.0878 30.5417 14.6321 30.2135 14.9428 29.7235C15.198 29.8683 15.4882 29.9577 15.8018 29.9577H17.8615C18.9028 33.9807 22.5532 36.9655 26.8975 36.9655C32.0494 36.9655 36.2412 32.7736 36.2412 27.6218C36.2412 23.3581 33.3195 19.6358 29.2334 18.5817ZM29.2334 22.2725C31.3287 23.1899 32.7373 25.287 32.7373 27.6218C32.7373 30.0108 31.2931 32.067 29.2334 32.9704V22.2725ZM23.7241 14.7741C23.5419 14.7741 23.3936 14.6258 23.3936 14.4436C23.3936 14.3835 23.4099 14.3251 23.4409 14.2737L26.5138 9.15156C26.6744 8.88352 27.1206 8.88352 27.2812 9.15156L30.3541 14.2731C30.385 14.3245 30.4014 14.3835 30.4014 14.4436C30.4014 14.6258 30.253 14.7741 30.0708 14.7741H28.0654V33.3436C27.6882 33.4207 27.2975 33.4616 26.8975 33.4616C26.4975 33.4616 26.1068 33.4207 25.7295 33.3436V14.7741H23.7241ZM24.5616 32.9704C22.5019 32.067 21.0577 30.0108 21.0577 27.6218C21.0577 25.287 22.4662 23.1899 24.5616 22.2725V32.9704ZM14.0499 28.7897C14.0499 29.1121 13.7877 29.3737 13.4659 29.3737H2.95421C1.98831 29.3737 1.20227 28.5877 1.20227 27.6218C1.20227 26.6558 1.98831 25.8698 2.95421 25.8698H13.4659C13.7877 25.8698 14.0499 26.1314 14.0499 26.4538V27.0378V28.2057V28.7897ZM15.8018 28.7897C15.48 28.7897 15.2178 28.5281 15.2178 28.2057V27.0378C15.2178 26.7154 15.48 26.4538 15.8018 26.4538H17.6361C17.5871 26.838 17.5538 27.2264 17.5538 27.6218C17.5538 28.0183 17.5865 28.406 17.6349 28.7897H15.8018ZM26.8975 35.7975C22.3891 35.7975 18.7217 32.1301 18.7217 27.6218C18.7217 23.9929 21.1388 20.8038 24.5616 19.7847V21.0175C21.7906 21.998 19.8897 24.6493 19.8897 27.6218C19.8897 31.486 23.0333 34.6295 26.8975 34.6295C30.7617 34.6295 33.9053 31.486 33.9053 27.6218C33.9053 24.6499 32.0044 21.9986 29.2334 21.0175V19.7847C32.6567 20.8038 35.0732 23.9917 35.0732 27.6218C35.0732 32.1301 31.4058 35.7975 26.8975 35.7975Z" fill="#D93059"/>
<path d="M10.5458 31.7097H2.37006V32.8777H10.5458V31.7097Z" fill="#D93059"/>
<path d="M10.5458 34.0457H2.37006V35.2136H10.5458V34.0457Z" fill="#D93059"/>
<path d="M16.3858 14.1902H11.7139V22.3659H10.546V10.6863H5.87412V22.3659H4.70616V16.5261H0.0343018V23.5339H16.3858V14.1902ZM3.53819 22.3659H1.20227V17.6941H3.53819V22.3659ZM7.04209 11.8542H9.37802V22.3659H7.04209V11.8542ZM15.2178 22.3659H12.8819V15.3581H15.2178V22.3659Z" fill="#D93059"/>
<path d="M2.3706 15.3581C3.65886 15.3581 4.70653 14.3104 4.70653 13.0222C4.70653 12.59 4.58097 12.1906 4.37541 11.8431L7.03136 9.18716C7.37883 9.39272 7.77827 9.51828 8.21042 9.51828C8.84754 9.51828 9.4251 9.26074 9.84674 8.84553L11.82 10.0293C11.7581 10.2389 11.7143 10.4567 11.7143 10.6862C11.7143 11.9745 12.762 13.0222 14.0502 13.0222C15.3385 13.0222 16.3862 11.9745 16.3862 10.6862C16.3862 10.49 16.3546 10.302 16.3085 10.1198L24.6787 5.55421C25.2148 6.18724 26.0055 6.59837 26.8979 6.59837C28.5079 6.59837 29.8178 5.2885 29.8178 3.67846C29.8178 2.06842 28.5079 0.758545 26.8979 0.758545C25.2878 0.758545 23.9779 2.06842 23.9779 3.67846C23.9779 3.97629 24.0358 4.25777 24.1193 4.52873L15.7496 9.09431C15.3233 8.6388 14.7218 8.35031 14.0502 8.35031C13.4131 8.35031 12.8356 8.60785 12.4139 9.02306L10.4406 7.83933C10.5025 7.62968 10.5463 7.41185 10.5463 7.18235C10.5463 5.89408 9.49868 4.84642 8.21042 4.84642C6.92215 4.84642 5.87449 5.89408 5.87449 7.18235C5.87449 7.6145 6.00005 8.01394 6.20561 8.36141L3.54966 11.0174C3.20219 10.8118 2.80274 10.6862 2.3706 10.6862C1.08233 10.6862 0.034668 11.7339 0.034668 13.0222C0.034668 14.3104 1.08233 15.3581 2.3706 15.3581ZM26.8979 1.92651C27.8638 1.92651 28.6498 2.71255 28.6498 3.67846C28.6498 4.64436 27.8638 5.4304 26.8979 5.4304C25.9319 5.4304 25.1459 4.64436 25.1459 3.67846C25.1459 2.71255 25.9319 1.92651 26.8979 1.92651ZM14.0502 9.51828C14.6944 9.51828 15.2182 10.0421 15.2182 10.6862C15.2182 11.3304 14.6944 11.8542 14.0502 11.8542C13.4061 11.8542 12.8823 11.3304 12.8823 10.6862C12.8823 10.0421 13.4061 9.51828 14.0502 9.51828ZM8.21042 6.01439C8.85455 6.01439 9.37838 6.53822 9.37838 7.18235C9.37838 7.82648 8.85455 8.35031 8.21042 8.35031C7.56629 8.35031 7.04245 7.82648 7.04245 7.18235C7.04245 6.53822 7.56629 6.01439 8.21042 6.01439ZM2.3706 11.8542C3.01473 11.8542 3.53856 12.378 3.53856 13.0222C3.53856 13.6663 3.01473 14.1901 2.3706 14.1901C1.72646 14.1901 1.20263 13.6663 1.20263 13.0222C1.20263 12.378 1.72646 11.8542 2.3706 11.8542Z" fill="#D93059"/>
</svg>
