<svg width="38" height="38" viewBox="0 0 38 38" fill="none" xmlns="http://www.w3.org/2000/svg">
<path d="M19.1241 0.0827637C18.958 0.0827637 18.7987 0.148763 18.6812 0.266243C18.5637 0.383722 18.4977 0.543059 18.4977 0.709201V3.23061C14.4578 3.39652 10.6382 5.11681 7.83668 8.03219C5.03512 10.9476 3.46822 14.8326 3.46322 18.8759C3.46495 21.0395 3.91902 23.1788 4.79628 25.1565C4.76996 25.1492 4.74317 25.1438 4.7161 25.1402H0.957476C0.791335 25.1402 0.631998 25.2062 0.514518 25.3237C0.397039 25.4412 0.331039 25.6005 0.331039 25.7667V37.0425C0.331039 37.2087 0.397039 37.368 0.514518 37.4855C0.631998 37.603 0.791335 37.669 0.957476 37.669H4.7161C4.88224 37.669 5.04157 37.603 5.15905 37.4855C5.27653 37.368 5.34253 37.2087 5.34253 37.0425V26.2722C5.71105 26.9575 6.12982 27.6145 6.59541 28.238V33.9104C6.59541 34.0765 6.66141 34.2358 6.77889 34.3533C6.89637 34.4708 7.0557 34.5368 7.22184 34.5368H10.9805C11.1466 34.5368 11.3059 34.4708 11.4234 34.3533C11.5409 34.2358 11.6069 34.0765 11.6069 33.9104V32.6024C13.9434 33.8869 16.5695 34.5527 19.2358 34.5367C21.902 34.5206 24.5199 33.8231 26.8407 32.5105C29.1616 31.1979 31.1083 29.3138 32.496 27.0371C33.8837 24.7603 34.6663 22.1666 34.7694 19.5023H37.2908C37.457 19.5023 37.6163 19.4363 37.7338 19.3188C37.8512 19.2013 37.9172 19.042 37.9172 18.8759C37.9116 13.8934 35.9298 9.11653 32.4067 5.59336C28.8835 2.07019 24.1067 0.0884009 19.1241 0.0827637ZM4.08966 36.4161H1.58391V26.3931H4.08966V36.4161ZM10.354 33.2839H7.84828V24.5138H10.354V33.2839ZM19.1241 33.2839C16.4693 33.2852 13.8665 32.5477 11.6069 31.154V23.8874C11.6069 23.7212 11.5409 23.5619 11.4234 23.4444C11.3059 23.3269 11.1466 23.2609 10.9805 23.2609H7.22184C7.0557 23.2609 6.89637 23.3269 6.77889 23.4444C6.66141 23.5619 6.59541 23.7212 6.59541 23.8874V25.9734C5.37772 23.8293 4.73133 21.4082 4.71822 18.9425C4.70511 16.4767 5.32572 14.0489 6.52054 11.892C7.71536 9.73501 9.44432 7.92119 11.5416 6.62446C13.6389 5.32773 16.0342 4.59158 18.4977 4.48661V18.8759C18.4975 18.9583 18.5137 19.04 18.5453 19.1161C18.5769 19.1922 18.6234 19.2613 18.6819 19.3194L28.8721 29.4746C26.218 31.9258 22.7371 33.2861 19.1241 33.2839ZM29.7573 28.5856L20.6401 19.5023H33.5165C33.3717 22.8782 32.0405 26.0948 29.7573 28.5856ZM19.7506 18.2494V1.34691C24.1813 1.51043 28.3861 3.34371 31.5212 6.4788C34.6563 9.61389 36.4896 13.8188 36.6531 18.2494H19.7506Z" fill="#11A3AC"/>
<path d="M17.2447 20.1289H13.4861C13.3199 20.1289 13.1606 20.1949 13.0431 20.3124C12.9256 20.4299 12.8596 20.5892 12.8596 20.7553V28.2726C12.8596 28.4387 12.9256 28.5981 13.0431 28.7155C13.1606 28.833 13.3199 28.899 13.4861 28.899H17.2447C17.4108 28.899 17.5702 28.833 17.6876 28.7155C17.8051 28.5981 17.8711 28.4387 17.8711 28.2726V20.7553C17.8711 20.5892 17.8051 20.4299 17.6876 20.3124C17.5702 20.1949 17.4108 20.1289 17.2447 20.1289ZM16.6183 27.6461H14.1125V21.3818H16.6183V27.6461Z" fill="#11A3AC"/>
</svg>
